PathFileType	4	(X/Y/Z)	C:/Users/rsk02/Documents/GitHub/TechForParalysis/Code/Model/Data/ABD_NL001_FP03.trc	
DataRate	CameraRate	NumFrames	NumMarkers	Units	OrigDataRate	OrigDataStartFrame	OrigNumFrames	
100.00	100.00	8	24	m	100.00	1192	1589	
Frame#	Time	EpL			EpM			rs			us			aa			ai			ts			acc			gu			c7			t8			ij			px			ij_proj_c7			ij_proj_px			ij_proj_ac			ai_proj_aa_x			ai_proj_ts			ai_proj_aa_z			centelbow_humerus			centusrs			centelbow_ulna			ac			ijc			
		X1	Y1	Z1	X2	Y2	Z2	X3	Y3	Z3	X4	Y4	Z4	X5	Y5	Z5	X6	Y6	Z6	X7	Y7	Z7	X8	Y8	Z8	X9	Y9	Z9	X10	Y10	Z10	X11	Y11	Z11	X12	Y12	Z12	X13	Y13	Z13	X14	Y14	Z14	X15	Y15	Z15	X16	Y16	Z16	X17	Y17	Z17	X18	Y18	Z18	X19	Y19	Z19	X20	Y20	Z20	X21	Y21	Z21	X22	Y22	Z22	X23	Y23	Z23	X24	Y24	Z24	

1192	11.910	0.17166	1.31342	0.02469	0.19694	1.25747	0.03777	0.29868	1.36844	0.20614	0.25723	1.37686	0.23142	0.14118	1.27426	-0.18915	0.12372	1.12461	-0.22570	0.12166	1.20756	-0.27946	0.16056	1.27997	-0.22645	0.17596	1.24432	-0.20803	0.16020	1.27395	-0.32499	0.11424	1.09123	-0.28158	0.24918	1.22288	-0.30407	0.27394	1.09513	-0.27844	0.16020	1.22288	-0.30407	0.24918	1.09513	-0.30407	0.24918	1.22288	-0.22645	0.14118	1.12461	-0.22570	0.12372	1.20756	-0.22570	0.12372	1.12461	-0.18915	0.18430	1.28544	0.03123	0.27795	1.37265	0.21878	0.18430	1.28544	0.03123	0.16056	1.27997	-0.22640	0.24918	1.22288	-0.30400 
1193	11.920	0.17214	1.30712	0.02705	0.19650	1.25056	0.03924	0.29930	1.35544	0.20994	0.25773	1.36432	0.23485	0.14195	1.27309	-0.18840	0.12100	1.12465	-0.22792	0.12090	1.20868	-0.28002	0.16147	1.27909	-0.22559	0.17603	1.24272	-0.20788	0.16024	1.27334	-0.32450	0.11478	1.09058	-0.28074	0.24943	1.22233	-0.30432	0.27450	1.09460	-0.27892	0.16024	1.22233	-0.30432	0.24943	1.09460	-0.30432	0.24943	1.22233	-0.22559	0.14195	1.12465	-0.22792	0.12100	1.20868	-0.22792	0.12100	1.12465	-0.18840	0.18432	1.27884	0.03315	0.27852	1.35988	0.22240	0.18432	1.27884	0.03314	0.16147	1.27909	-0.22550	0.24943	1.22233	-0.30430 
1194	11.930	0.17269	1.30059	0.02930	0.19620	1.24346	0.04038	0.30048	1.34253	0.21334	0.25905	1.35136	0.23850	0.14261	1.27200	-0.18767	0.11900	1.12467	-0.22976	0.12095	1.20952	-0.28047	0.16251	1.27821	-0.22461	0.17622	1.24128	-0.20740	0.16097	1.27343	-0.32396	0.11463	1.09069	-0.28103	0.24994	1.22180	-0.30439	0.27437	1.09379	-0.27977	0.16097	1.22180	-0.30439	0.24994	1.09379	-0.30439	0.24994	1.22180	-0.22461	0.14261	1.12467	-0.22976	0.11900	1.20952	-0.22976	0.11900	1.12467	-0.18767	0.18445	1.27203	0.03484	0.27976	1.34695	0.22592	0.18445	1.27203	0.03484	0.16251	1.27821	-0.22460	0.24994	1.22180	-0.30430 
1195	11.940	0.17349	1.29306	0.03134	0.19577	1.23514	0.04078	0.30164	1.32988	0.21641	0.26038	1.33899	0.24178	0.14335	1.27082	-0.18687	0.11644	1.12465	-0.23103	0.12007	1.21018	-0.28050	0.16327	1.27714	-0.22379	0.17622	1.23967	-0.20716	0.16187	1.27375	-0.32302	0.11451	1.09118	-0.28050	0.25061	1.22136	-0.30443	0.27427	1.09306	-0.28059	0.16187	1.22136	-0.30443	0.25061	1.09306	-0.30443	0.25061	1.22136	-0.22379	0.14335	1.12465	-0.23103	0.11644	1.21018	-0.23103	0.11644	1.12465	-0.18687	0.18463	1.26410	0.03606	0.28101	1.33443	0.22910	0.18463	1.26410	0.03606	0.16327	1.27714	-0.22370	0.25061	1.22136	-0.30440 
1196	11.950	0.17443	1.28585	0.03339	0.19578	1.22736	0.04132	0.30261	1.31662	0.21866	0.26195	1.32596	0.24488	0.14339	1.26920	-0.18590	0.11204	1.12469	-0.23250	0.11855	1.21085	-0.28058	0.16363	1.27549	-0.22265	0.17534	1.23736	-0.20659	0.16211	1.27301	-0.32375	0.11482	1.09014	-0.28245	0.25082	1.22071	-0.30483	0.27458	1.09233	-0.28145	0.16211	1.22071	-0.30483	0.25082	1.09233	-0.30483	0.25082	1.22071	-0.22265	0.14339	1.12469	-0.23250	0.11204	1.21085	-0.23250	0.11204	1.12469	-0.18590	0.18510	1.25660	0.03736	0.28228	1.32129	0.23177	0.18510	1.25660	0.03735	0.16363	1.27549	-0.22260	0.25082	1.22071	-0.30480 
1197	11.960	0.17472	1.27837	0.03538	0.19557	1.21952	0.04181	0.30361	1.30314	0.22097	0.26308	1.31225	0.24748	0.14571	1.26917	-0.18308	0.11891	1.12370	-0.22951	0.12461	1.20969	-0.27796	0.16671	1.27571	-0.21935	0.17890	1.23797	-0.20276	0.16351	1.27373	-0.32442	0.11402	1.09135	-0.28354	0.25156	1.22043	-0.30515	0.27378	1.09177	-0.28181	0.16351	1.22043	-0.30515	0.25156	1.09177	-0.30515	0.25156	1.22043	-0.21935	0.14571	1.12370	-0.22951	0.11891	1.20969	-0.22951	0.11891	1.12370	-0.18308	0.18514	1.24894	0.03859	0.28334	1.30770	0.23422	0.18514	1.24894	0.03859	0.16671	1.27571	-0.21930	0.25156	1.22043	-0.30510 
1198	11.970	0.17474	1.27079	0.03720	0.19518	1.21165	0.04215	0.30401	1.28907	0.22300	0.26340	1.29795	0.24947	0.14925	1.26908	-0.18060	0.12730	1.12278	-0.22700	0.13025	1.20890	-0.27549	0.17008	1.27629	-0.21685	0.18347	1.23897	-0.20022	0.16377	1.27339	-0.32318	0.11469	1.09081	-0.28269	0.25200	1.22002	-0.30495	0.27446	1.09126	-0.28240	0.16377	1.22002	-0.30495	0.25200	1.09126	-0.30495	0.25200	1.22002	-0.21685	0.14925	1.12278	-0.22700	0.12730	1.20890	-0.22700	0.12730	1.12278	-0.18060	0.18496	1.24122	0.03968	0.28370	1.29351	0.23624	0.18496	1.24122	0.03967	0.17008	1.27629	-0.21680	0.25200	1.22002	-0.30490 
1199	11.980	0.17503	1.26344	0.03887	0.19551	1.20421	0.04237	0.30542	1.27599	0.22473	0.26487	1.28432	0.25145	0.15011	1.26822	-0.17877	0.12833	1.12244	-0.22684	0.13209	1.20901	-0.27445	0.17139	1.27572	-0.21470	0.18449	1.23821	-0.19828	0.16356	1.27198	-0.32477	0.11548	1.08858	-0.28682	0.25194	1.21926	-0.30545	0.27521	1.09052	-0.28367	0.16356	1.21926	-0.30545	0.25194	1.09052	-0.30545	0.25194	1.21926	-0.21470	0.15011	1.12244	-0.22684	0.12833	1.20901	-0.22684	0.12833	1.12244	-0.17877	0.18527	1.23383	0.04062	0.28514	1.28016	0.23809	0.18527	1.23383	0.04062	0.17139	1.27572	-0.21400	0.25194	1.21926	-0.30540 
